<?xml version="1.0" encoding="UTF-8" standalone="no"?>
<!-- Created with Inkscape (http://www.inkscape.org/) -->

<svg
   width="991.22034mm"
   height="206.66365mm"
   viewBox="0 0 991.22031 206.66365"
   version="1.1"
   id="svg1"
   xmlns="http://www.w3.org/2000/svg"
   xmlns:svg="http://www.w3.org/2000/svg">
  <defs
     id="defs1" />
  <g
     id="layer5"
     transform="translate(-2498.3379,512.05411)">
    <path
       d="m 2744.5065,-305.39124 28.8823,-164.04044 h -57.7646 l 7.5711,-42.62247 h 168.527 l -7.5711,42.62247 h -57.7647 l -28.8823,164.04044 z m 156.4691,0 -25.5174,-31.12562 25.237,-144.41167 36.7339,-31.12562 h 122.2592 l 25.5174,31.12562 -25.237,144.41167 -36.7339,31.12562 z m 38.9772,-39.81836 h 58.8863 l 11.4968,-9.81438 19.068,-107.39742 -8.6928,-9.81439 h -58.3254 l -11.7773,9.81439 -19.068,107.39742 z m 146.9353,39.81836 36.4534,-206.66291 h 141.888 l 26.0782,31.12562 -13.1793,74.02851 -29.1628,24.67617 17.6659,76.83261 h -50.1935 l -14.8618,-70.38316 h -49.3524 l -12.338,70.38316 z m 72.346,-110.20152 h 58.8863 l 11.7773,-9.81439 6.4494,-37.01425 -8.1319,-9.81439 h -58.8863 z m 135.7191,110.20152 36.4534,-206.66291 h 158.1518 l -7.5711,42.62247 h -105.1541 l -6.7298,38.1359 h 94.7789 l -6.7299,39.53795 h -95.0593 l -7.5711,43.74412 h 105.1541 l -7.5711,42.62247 z"
       id="text1"
       style="-inkscape-font-specification:'Tomorrow, Bold Italic';fill:#ffffff;fill-opacity:1;stroke-width:280.411;stroke-linecap:round;stroke-linejoin:round;stroke-miterlimit:6.7"
       aria-label="STORE" />
    <g
       id="g34"
       transform="rotate(180,2609.2065,-408.7223)">
      <path
         d="m 2569.8071,-512.05349 -36.7337,31.12574 -11.2168,64.49478 25.5178,31.12523 h 77.5369 7.708 l 8.1318,9.81439 -2.7998,16.54473 -0.2848,1.68207 -11.777,9.81438 -27.838,-10e-6 -7.3467,42.06091 58.7388,6.2e-4 36.7342,-31.12523 1.9084,-10.93629 2.0066,-11.49645 4.6002,-26.35912 1.8599,-10.65568 -4.1005,-5.04672 -21.4168,-26.35911 h -49.4136 -35.8314 l -8.1318,-9.81439 3.9254,-22.99343 11.7776,-9.81439 h 35.6732 l 7.3153,-42.06203 z"
         style="-inkscape-font-specification:'Tomorrow, Bold Italic';fill:#ffffff;stroke-width:280.411;stroke-linecap:round;stroke-linejoin:round;stroke-miterlimit:6.7"
         id="path33" />
      <path
         d="m 2667.8473,-512.05398 -0.8283,4.76715 -8.1835,47.10875 -1.7711,10.37559 -2.1538,12.61835 -11.777,9.81388 v 5.1e-4 h -83.5624 l -25.6378,21.72375 v 0.004 l -3.282,2.78019 -7.8087,6.61717 -10.3752,59.44702 v 5.1e-4 l -5.4622,31.40584 h 30.9795 21.223 l 9.0609,-51.8759 1.8035,-10.6562 1.2811,-7.5706 11.7765,-9.81387 h 83.5629 l 24.7246,-20.95014 12.0091,-10.17561 10.3451,-59.48422 0.8712,-5.01055 5.4323,-31.12576 z"
         style="fill:#000000;stroke-width:7.57569;stroke-linecap:round;stroke-linejoin:round;stroke-miterlimit:6.7"
         id="path14" />
    </g>
  </g>
</svg>
