<?xml version="1.0" encoding="UTF-8" standalone="no"?>
<!-- Created with Inkscape (http://www.inkscape.org/) -->

<svg
   width="213.06946mm"
   height="213.06941mm"
   viewBox="0 0 213.06945 213.06942"
   version="1.1"
   id="svg1"
   xmlns="http://www.w3.org/2000/svg"
   xmlns:svg="http://www.w3.org/2000/svg">
  <defs
     id="defs1" />
  <g
     id="layer5"
     transform="translate(-2498.3379,-32.539038)">
    <g
       id="g4"
       transform="rotate(180,2609.2064,-134.82432)">
      <path
         d="m 2569.8071,-512.05349 -36.7337,31.12574 -11.2168,64.49478 25.5178,31.12523 h 77.5369 7.708 l 8.1318,9.81439 -2.7998,16.54473 -0.2848,1.68207 -11.777,9.81438 -27.838,-10e-6 -7.3467,42.06091 58.7388,6.2e-4 36.7342,-31.12523 1.9084,-10.93629 2.0066,-11.49645 4.6002,-26.35912 1.8599,-10.65568 -4.1005,-5.04672 -21.4168,-26.35911 h -49.4136 -35.8314 l -8.1318,-9.81439 3.9254,-22.99343 11.7776,-9.81439 h 35.6732 l 7.3153,-42.06203 z"
         style="-inkscape-font-specification:'Tomorrow, Bold Italic';fill:#ffffff;stroke-width:280.411;stroke-linecap:round;stroke-linejoin:round;stroke-miterlimit:6.7"
         id="path3" />
      <path
         d="m 2667.8473,-512.05398 -0.8283,4.76715 -8.1835,47.10875 -1.7711,10.37559 -2.1538,12.61835 -11.777,9.81388 v 5.1e-4 h -83.5624 l -25.6378,21.72375 v 0.004 l -3.282,2.78019 -7.8087,6.61717 -10.3752,59.44702 v 5.1e-4 l -5.4622,31.40584 h 30.9795 21.223 l 9.0609,-51.8759 1.8035,-10.6562 1.2811,-7.5706 11.7765,-9.81387 h 83.5629 l 24.7246,-20.95014 12.0091,-10.17561 10.3451,-59.48422 0.8712,-5.01055 5.4323,-31.12576 z"
         style="fill:#000000;stroke-width:7.57569;stroke-linecap:round;stroke-linejoin:round;stroke-miterlimit:6.7"
         id="path4" />
    </g>
  </g>
</svg>
